<svg id="OBJECTS" xmlns="http://www.w3.org/2000/svg" viewBox="0 0 113.84 38.2"><defs><style>.cls-1{fill:#231f20;stroke:#231f20;}.cls-1,.cls-2{stroke-miterlimit:10;stroke-width:2px;}.cls-2{fill:#f05a27;stroke:#f05a27;}.cls-3{fill:#3f4c9f;}</style></defs><path class="cls-1" d="M28.52,35.23a9.29,9.29,0,0,0,3.74-.78,11.33,11.33,0,0,0,3.35-2.28l2.23,2.43a14.31,14.31,0,0,1-4.37,2.86,12.86,12.86,0,0,1-5,1,12.23,12.23,0,0,1-4.86-1,12,12,0,0,1-3.93-2.67,12.82,12.82,0,0,1-2.62-4,12.67,12.67,0,0,1-1-4.95,12.53,12.53,0,0,1,1-4.93,12.91,12.91,0,0,1,2.62-4,12.4,12.4,0,0,1,3.93-2.7,12.07,12.07,0,0,1,4.86-1,13.48,13.48,0,0,1,5.12,1,14.16,14.16,0,0,1,4.39,2.81l-2.28,2.62a10.63,10.63,0,0,0-3.35-2.33,9.51,9.51,0,0,0-3.84-.82,8.47,8.47,0,0,0-3.49.73,8.57,8.57,0,0,0-2.84,2,9.32,9.32,0,0,0-1.87,3,10.06,10.06,0,0,0,0,7.35,8.94,8.94,0,0,0,1.89,3,8.82,8.82,0,0,0,2.84,2A8.63,8.63,0,0,0,28.52,35.23Z" transform="translate(-15.05 -1.33)"/><path class="cls-1" d="M49.73,38.48a9.93,9.93,0,0,1-6.48-2,6.52,6.52,0,0,1-2.5-5.29,6.47,6.47,0,0,1,2.63-5.41,11.34,11.34,0,0,1,7.08-2,16.26,16.26,0,0,1,7.14,1.65v-3.2A5.59,5.59,0,0,0,56,17.78a7,7,0,0,0-4.81-1.48,13.28,13.28,0,0,0-3.61.51,22.15,22.15,0,0,0-4,1.62l-1.36-2.76A26.69,26.69,0,0,1,47,13.82a17.45,17.45,0,0,1,4.46-.58q4.62,0,7.11,2.18a7.87,7.87,0,0,1,2.5,6.26V38H57.6V35.66A11.56,11.56,0,0,1,54,37.78,12.71,12.71,0,0,1,49.73,38.48ZM44.2,31.05a4,4,0,0,0,1.72,3.33,7.23,7.23,0,0,0,4.45,1.28,11,11,0,0,0,4-.68,9.16,9.16,0,0,0,3.25-2.13V28.29a10.5,10.5,0,0,0-3.23-1.48,14.62,14.62,0,0,0-3.81-.47,7.58,7.58,0,0,0-4.64,1.29A4.06,4.06,0,0,0,44.2,31.05Z" transform="translate(-15.05 -1.33)"/><path class="cls-1" d="M87.6,35.47a15.75,15.75,0,0,1-4.25,2.26,14.92,14.92,0,0,1-4.83.75,12.53,12.53,0,0,1-4.93-1,12.22,12.22,0,0,1-4-2.67,12.38,12.38,0,0,1-2.64-4,13.1,13.1,0,0,1,0-9.87,12.93,12.93,0,0,1,2.55-4A11.67,11.67,0,0,1,78,13.34a10.67,10.67,0,0,1,4.54,1A10.84,10.84,0,0,1,86.16,17a13,13,0,0,1,2.43,4,13.21,13.21,0,0,1,.9,4.9V27H69.54a9.21,9.21,0,0,0,3,6,8.77,8.77,0,0,0,6.16,2.37,11.77,11.77,0,0,0,3.69-.58,8.46,8.46,0,0,0,3-1.65Zm-9.71-19a7.72,7.72,0,0,0-5.46,2.14,8.93,8.93,0,0,0-2.79,5.48H85.9a9.34,9.34,0,0,0-2.75-5.41A7.29,7.29,0,0,0,77.89,16.49Z" transform="translate(-15.05 -1.33)"/><path class="cls-2" d="M96,9.51a3.49,3.49,0,0,1-2.55-1.07,3.43,3.43,0,0,1-1.09-2.52,3.4,3.4,0,0,1,1.09-2.55,3.58,3.58,0,0,1,2.55-1,3.54,3.54,0,0,1,2.58,1,3.56,3.56,0,0,1,0,5.07A3.45,3.45,0,0,1,96,9.51Z" transform="translate(-15.05 -1.33)"/><path class="cls-1" d="M103.08,25.86a12.67,12.67,0,0,1,1-4.95,12.44,12.44,0,0,1,2.65-4,12.49,12.49,0,0,1,13.64-2.67,12.22,12.22,0,0,1,6.57,6.7,12.67,12.67,0,0,1,1,4.95,12.81,12.81,0,0,1-1,5,12.22,12.22,0,0,1-6.57,6.7,12.26,12.26,0,0,1-4.83,1,12.4,12.4,0,0,1-4.86-1,12.2,12.2,0,0,1-4-2.67,12.55,12.55,0,0,1-2.65-4A12.81,12.81,0,0,1,103.08,25.86Zm12.43,9.46A8.49,8.49,0,0,0,119,34.6a8.59,8.59,0,0,0,2.81-2,9.55,9.55,0,0,0,1.87-3,10.46,10.46,0,0,0,0-7.42,9.24,9.24,0,0,0-1.87-3,8.8,8.8,0,0,0-2.81-2,8.61,8.61,0,0,0-6.94,0,8.74,8.74,0,0,0-2.82,2,9.82,9.82,0,0,0-2.6,6.7,10.07,10.07,0,0,0,.68,3.71,9.74,9.74,0,0,0,1.87,3,8.5,8.5,0,0,0,2.84,2A8.67,8.67,0,0,0,115.51,35.32Z" transform="translate(-15.05 -1.33)"/><path class="cls-1" d="M98,13.69V38H94.43V13.69Z" transform="translate(-15.05 -1.33)"/><path class="cls-3" d="M104.51,14.12c1.65-2.36,4.41-5.46,8.48-6.34s7.78.89,7.89.51-3.43-2.72-7.57-2.45c-4.6.29-7.68,3.66-8.67,4.85-1.5-1.3-7.38-6.14-13-4.47C89.81,6.76,88,8,88.13,8.29S91.69,7,95.19,7.45c3.74.51,7.33,3.8,9.32,6.67Z" transform="translate(-15.05 -1.33)"/></svg>