<?xml version="1.0" encoding="UTF-8"?>
<svg id="Logo_Artwork" data-name="Logo Artwork" xmlns="http://www.w3.org/2000/svg" width="3.8in" height="1.2in" viewBox="0 0 274.6 86.3">
  <defs>
    <style>
      .cls-1 {
        fill: #ff4500;
      }

      .cls-2 {
        fill: #174ee2;
      }
    </style>
  </defs>
  <path d="m0,57.6c0-18.8,12.3-28.3,28.3-28.3s21,6.5,22.6,18.5l-16.5,4.6c-.5-3.6-2-8.2-7.1-8.2s-7.9,5.5-7.9,11.7c0,9.3,4.4,14.6,13.9,14.6s10-1.8,14.1-4.8l4.2,12.9c-3.8,3.7-12.5,7.6-22.8,7.6-19.6,0-28.9-12.1-28.9-28.5Z"/>
  <path d="m118.5,83.5c-3,1.6-8.1,2.7-12.5,2.7s-9-1-11.8-5.3c-4.1,2.8-9.6,5.3-17,5.3-11.9,0-19.2-6.2-19.2-16s10.6-16.6,25-16.6,6,.2,8.7.7v-2.8c0-4.8-3-7.3-9.6-7.3s-12.5,2.5-17.7,5.5l-2-14.1c5.4-3.1,12.8-6.3,23-6.3s25,4.2,25,21.2v14.3c0,6.1,1.5,9.5,7.4,7.9l.7,10.8Zm-26.8-12.3v-6.4c-2.1-.4-3.9-.6-5.7-.6-5.4,0-8.4,1.8-8.4,5.2s2.3,4.3,5.9,4.3,5.7-1,8.1-2.5Z"/>
  <path d="m175.4,61.8h-33.1c1.7,7.5,6.9,10.2,14.9,10.2s10.1-1.4,14.1-3.7l3.4,11.7c-3.9,3-11.1,6.2-21.8,6.2-20.5,0-30-11.4-30-28s11.1-28.8,28.2-28.8,28.4,14.1,24.2,32.5Zm-33.3-10.8h18.6c.1-5.5-3.1-9.6-9-9.6s-8.5,2.7-9.6,9.6Z"/>
  <path class="cls-1" d="m183.8,10.7c-.5-14.3,22.2-14.4,21.8,0,.4,14.4-22.2,14.2-21.8,0Z"/>
  <path d="m185.1,69.9V30.9h19.1v35.8c-.3,6.3,3,6.8,7.4,6l.6,10.7c-9.4,4.8-28.5,5.2-27.1-13.5Z"/>
  <path d="m216.9,57.5c0-17.8,11.6-28.2,29.2-28.2s28.5,10.3,28.5,27.9-11.1,28.9-29,28.9-28.7-11.2-28.7-28.7Zm38.5-.1c0-8.7-3.7-13.8-9.5-13.8s-9.7,5-9.7,13.8,3.8,14.4,9.6,14.4,9.6-5.5,9.6-14.4Z"/>
  <path class="cls-2" d="m216.9,34.1l-1.1-1.6c-4.4-6.4-12.6-14.2-21.4-15.4-7.9-1.1-16.1,1.9-16.2,1.9l-6.6,2.4,5.2-4.8c.2-.2,4.3-3.9,8.9-5.3,12.5-3.7,25.5,5.2,31.4,10.1,3.8-4.3,11-10.4,20.8-11.1,10.3-.7,18.7,5.9,19.1,6.2l6.8,5.4-8.2-3.1c0,0-8.8-3.2-18.1-1.2-7.2,1.6-13.8,6.5-19.5,14.6l-1.1,1.6Z"/>
</svg>